<svg xmlns="http://www.w3.org/2000/svg" viewBox="0 0 64 64" role="img" aria-label="FR Engineering Solutions">
  <defs>
    <linearGradient id="g" x1="0" y1="0" x2="1" y2="1">
      <stop offset="0%" stop-color="#22d3ee"/>
      <stop offset="100%" stop-color="#3b82f6"/>
    </linearGradient>
  </defs>
  <rect width="64" height="64" rx="16" fill="#0b1522"/>
  <path d="M18 40V24h10.5c4.2 0 7 2.4 7 6s-2.8 6-7 6H24v4H18zm6-9h4c1.7 0 2.7-.9 2.7-2.2S29.7 26.5 28 26.5H24V31zM38 40l7.8-16h5.2L58 40h-5.4l-1.2-2.8H44l-1.2 2.8H38zm8.2-7.2h4.1L48.3 27l-2.1 5.8z" fill="url(#g)"/>
</svg>
